PathFileType	4	(X/Y/Z)	Patient4_TMGait_0pt5_01_right_12.trc.trc
DataRate	CameraRate	NumFrames	NumMarkers	Units	OrigDataRate	OrigDataStartFrame	OrigNumFrames
79.096045197740	79.096045197740	5	33	mm	79.096045197740	89	       141
Frame#	Time	L.ASIS			Sacral			L.Shoulder			Chest			R.Shoulder			Neck			R.ASIS			R.Thigh.Superior			R.Thigh.Lateral			R.Thigh.Inferior			R.Patella			L.Thigh.Superior			L.Thigh.Lateral			L.Thigh.Inferior			L.Patella			L.Shank.Superior			L.Shank.Lateral			L.Shank.Inferior			R.Shank.Superior			R.Shank.Lateral			R.Shank.Inferior			R.Heel			R.Midfoot.Superior			R.Midfoot.Lateral			R.Toe			L.Heel			L.Midfoot.Lateral			L.Midfoot.Superior			L.Toe			L.Elbow			L.Wrist			R.Elbow			R.Wrist			
		X1	Y1	Z1	X2	Y2	Z2	X3	Y3	Z3	X4	Y4	Z4	X5	Y5	Z5	X6	Y6	Z6	X7	Y7	Z7	X8	Y8	Z8	X9	Y9	Z9	X10	Y10	Z10	X11	Y11	Z11	X12	Y12	Z12	X13	Y13	Z13	X14	Y14	Z14	X15	Y15	Z15	X16	Y16	Z16	X17	Y17	Z17	X18	Y18	Z18	X19	Y19	Z19	X20	Y20	Z20	X21	Y21	Z21	X22	Y22	Z22	X23	Y23	Z23	X24	Y24	Z24	X25	Y25	Z25	X26	Y26	Z26	X27	Y27	Z27	X28	Y28	Z28	X29	Y29	Z29	X30	Y30	Z30	X31	Y31	Z31	X32	Y32	Z32	X33	Y33	Z33	

89	16.622571428571	800.435534955007	958.200891653250	279.598651796760	588.239340222626	1010.027659529921	439.647288416393	756.388129167663	1428.020630140991	234.910994056387	862.674538761440	1366.766736967447	397.289994806791	782.295412605491	1448.894715728643	569.857184759223	761.666279180616	1498.417499595545	382.464454751106	816.860142564162	950.506955374479	553.633694870502	884.356169422193	762.076502194508	527.055541976835	828.367327678126	645.543611395069	598.987177984915	913.135681940573	595.887588394005	520.604154204333	918.312881265654	481.813839681062	543.786481413907	858.441071657058	754.849959964643	314.600855938509	777.006741416410	635.688142018380	260.590086697779	864.280862219240	563.830586281033	327.070669450258	867.072306825039	493.774131491529	338.736443023261	843.831901577424	420.754913364866	331.480057123673	760.201441713070	301.822155310373	282.821592403963	814.612420324425	195.078433716395	357.551283605287	838.283317855618	413.398469644101	550.048255580681	714.481482118524	379.243561708943	607.862090942444	696.561438480563	271.299765169391	559.589180287003	492.003107567986	210.104280870506	524.956452472322	661.098507337243	163.382509041701	581.104180688967	549.625945290927	164.598288593873	609.039288073984	726.363176182091	57.703106305534	627.320816305304	689.757753213009	37.567659945288	401.390644677581	763.700324433048	34.997743542910	320.190127420884	846.627980118003	96.455990043010	346.475093062789	975.022268724837	45.825449456210	318.689880709131	751.765055079618	1068.726128485325	125.564619002334	848.627446094088	826.672781516509	124.523769515197	763.411669316673	1102.172908716868	691.198883608628	936.452354888333	911.344108011030	664.055018919449	
90	16.635214285714	800.359150935919	958.805495391416	278.043549853020	587.656441682186	1010.138846176462	437.658479652281	755.841893049022	1429.111853612174	234.262004985295	861.636784584440	1367.597014876025	396.910602706669	780.331246213477	1448.741291857423	569.499467551620	760.449556016246	1499.069693032156	382.139102080648	816.195031529222	951.332996848278	552.109838069585	886.348687813813	765.062275619597	525.186018472996	833.202210924701	648.055283609990	597.951138241482	918.536934439180	599.669958824501	519.287732014811	925.772831268402	485.325163684824	542.769168584609	857.261686390952	754.261874896942	313.418516636735	774.628108512293	635.636277425535	259.598567276548	860.976316488521	563.040850320982	326.308591263087	863.048228854494	493.110046396508	338.315031536373	839.558532633068	420.295814134612	331.092614254013	755.513256090757	301.716676925263	282.338950319808	809.010151674300	194.804150549810	357.468590931865	845.670901033290	416.357440813729	549.409829393204	721.674993455620	382.773357028302	607.279091483352	703.333256400467	274.789844396187	559.351564648668	498.700833457423	214.635457085892	524.782077352362	667.374686748997	166.788617038324	581.050667816681	555.930777283606	168.723677533222	608.900464064861	731.914015771956	60.611636027359	627.347036960287	683.363755241672	37.583915110833	401.356006767163	757.345996399282	35.009233828813	320.186610816005	840.330898566287	96.379422466799	346.536264585453	968.715158243585	45.571550988700	318.711236054122	757.922914242280	1070.693790771911	122.202248654098	864.247960138586	832.481840453524	119.935911488247	755.187951481263	1101.890259115293	689.795921532848	912.807382782478	896.935341332233	667.886265485130	
91	16.647857142857	800.331173745679	959.421053183524	276.624364560185	587.081313999459	1010.271973627049	435.733543617733	755.320732983355	1430.218527371974	233.713648834911	860.602932370202	1368.408694783644	396.620846660635	778.414660358267	1448.570817028570	569.225627742540	759.235336530725	1499.715095624178	381.917270122502	815.420906656246	952.124858602085	550.746216378264	888.054279481776	767.956281734495	523.533929833996	837.543662918511	650.540696252865	597.009542449129	923.446075287887	603.406104509592	518.137279654359	932.716395669019	488.923158936886	541.826239389005	855.921044061626	753.642705580883	312.339798616151	772.090998881824	635.608798130206	258.612673740781	857.499840757630	562.254205671074	325.545947398429	858.855152286017	492.455817170117	337.855478872457	835.135308648725	419.859337053940	330.663837208958	750.670052795082	301.618900450578	281.861577175551	803.334117720820	194.553066002776	357.346751624912	852.831754838934	419.236668132630	548.830376904609	728.891370085027	385.587733775111	606.856055689553	710.613001340062	277.502776508483	559.221116628893	506.152215013929	217.323521932802	524.898920363454	674.751900952450	169.244173100376	581.055808026294	563.352698663339	171.251557977070	608.924782768207	739.169618025219	62.898922875423	627.210708964041	676.959663745052	37.595304478766	401.320876403576	750.986959144654	35.014168610041	320.179245984724	834.010377958396	96.321207080630	346.575460177999	962.391070701663	45.383973399528	318.730898463520	763.804935127968	1072.819682807738	119.021107089127	879.665171571280	838.945014203326	115.612497604013	747.181165891399	1101.709979509720	688.326441058106	888.198003038849	883.963860491236	672.072731009110	
92	16.660500000000	800.371307829584	960.055279161857	275.336198709303	586.504710593418	1010.425603918446	433.872708679504	754.863939221837	1431.319365472716	233.250057168292	859.592612009174	1369.190259086254	396.421082499462	776.550565008147	1448.395363201300	569.020582071470	758.043633545687	1500.342595290293	381.772534558463	814.547192024178	952.870578615550	549.540966683200	889.489938411710	770.733434551603	522.115657259319	841.371912344451	652.961987857437	596.181527750743	927.851420391353	607.043748213462	517.184578559651	939.108782150190	492.564977041950	541.009750889328	854.402744917727	752.993281672514	311.375302504300	769.399593215634	635.600838179662	257.632921006216	853.852651567344	561.473992937253	324.792785503071	854.493763865674	491.811949187827	337.359152899907	830.563005030984	419.444321153127	330.197176506530	745.676419916438	301.525010510192	281.389161473984	797.587347050376	194.322715399664	357.190101532652	859.742471386211	421.994896075352	548.348191620526	736.098732815370	387.626902291718	606.593086636509	718.416101546060	279.364781898118	559.210838766351	514.402760013516	218.064105042503	525.263061730454	683.268093565186	170.668252615857	581.143854723429	571.913639828231	172.099962493260	609.104496590335	748.167891978544	64.479281446180	626.991672113084	670.547053417096	37.603900129732	401.287752639222	744.622867341616	35.012557670814	320.169313874250	827.671094631444	96.275374319461	346.594179854556	956.053155704575	45.245922969148	318.746944238187	769.379219856171	1075.062427232553	116.008570067727	894.810276418594	846.031614189194	111.559208669795	739.312761880259	1101.670160705731	686.821808002865	862.890035103167	872.722076883596	676.514481966113	
93	16.673142857143	800.494266628842	960.708069445777	274.166654617309	585.915386869956	1010.595194429792	432.077500390388	754.501795669059	1432.391411555484	232.858676127370	858.622214490595	1369.926704744149	396.311124290518	774.741506227539	1448.220522413800	568.871762161906	756.892269516785	1500.937597307082	381.682895943321	813.590659688997	953.559904744295	548.483855463850	890.668357727189	773.366138530028	520.933963032314	844.674131142426	655.281480459057	595.484748692445	931.736744613534	610.529097511763	516.447389909073	944.915919098380	496.206936444662	540.359642024087	852.713803097966	752.318442429689	310.527505115850	766.574574078954	635.603756630718	256.666416053640	850.057112570925	560.703334827275	324.056888096384	849.987464525213	491.178371573401	336.830446843811	825.861321098038	419.047373179808	329.700203745051	740.553435231973	301.432720520124	280.921823725817	791.781521145801	194.108961513688	357.004494180134	866.378569436492	424.594264979432	547.997171243271	743.269677487568	388.849642899323	606.488969425493	726.753012599901	280.329860657108	559.333150823652	523.505936664627	216.799819347587	525.835704969393	692.944876368941	171.023645270294	581.339420638419	581.635432161763	171.238595570230	609.437467678508	758.921553717793	65.330583689965	626.774264321957	664.129422429878	37.612412594126	401.258667173362	738.254858774846	35.005621940256	320.157856286010	821.320042751505	96.236144182913	346.595142353271	949.706414884964	45.137521887822	318.758332191012	774.624589815759	1077.376185991326	113.151920963590	909.615693347204	853.698531169806	107.779209707605	731.489764996780	1101.812715389865	685.333675894080	837.195842390154	863.430039706107	681.107660439912	
